<svg width="24" height="24" viewBox="0 0 24 24" fill="none" xmlns="http://www.w3.org/2000/svg">
<path d="M12 24C10.34 24 8.78 23.6848 7.32 23.0544C5.86 22.424 4.59 21.5692 3.51 20.49C2.43 19.4108 1.5752 18.1408 0.945601 16.68C0.316001 15.2192 0.000801518 13.6592 1.51899e-06 12C-0.00079848 10.3408 0.314401 8.7808 0.945601 7.32C1.5768 5.8592 2.4316 4.5892 3.51 3.51C4.5884 2.4308 5.8584 1.576 7.32 0.9456C8.7816 0.3152 10.3416 0 12 0C13.6584 0 15.2184 0.3152 16.68 0.9456C18.1416 1.576 19.4116 2.4308 20.49 3.51C21.5684 4.5892 22.4236 5.8592 23.0556 7.32C23.6876 8.7808 24.0024 10.3408 24 12V13.74C24 14.92 23.5952 15.9252 22.7856 16.7556C21.976 17.586 20.9808 18.0008 19.8 18C19.1 18 18.44 17.85 17.82 17.55C17.2 17.25 16.68 16.82 16.26 16.26C15.68 16.84 15.0248 17.2752 14.2944 17.5656C13.564 17.856 12.7992 18.0008 12 18C10.34 18 8.9252 17.4148 7.7556 16.2444C6.586 15.074 6.0008 13.6592 6 12C5.9992 10.3408 6.5844 8.926 7.7556 7.7556C8.9268 6.5852 10.3416 6 12 6C13.6584 6 15.0736 6.5852 16.2456 7.7556C17.4176 8.926 18.0024 10.3408 18 12V13.74C18 14.26 18.17 14.7 18.51 15.06C18.85 15.42 19.28 15.6 19.8 15.6C20.32 15.6 20.75 15.42 21.09 15.06C21.43 14.7 21.6 14.26 21.6 13.74V12C21.6 9.32 20.67 7.05 18.81 5.19C16.95 3.33 14.68 2.4 12 2.4C9.31999 2.4 7.05 3.33 5.19 5.19C3.33 7.05 2.4 9.32 2.4 12C2.4 14.68 3.33 16.95 5.19 18.81C7.05 20.67 9.31999 21.6 12 21.6H18V24H12ZM12 15.6C13 15.6 13.85 15.25 14.55 14.55C15.25 13.85 15.6 13 15.6 12C15.6 11 15.25 10.15 14.55 9.45C13.85 8.75 13 8.4 12 8.4C11 8.4 10.15 8.75 9.45 9.45C8.75 10.15 8.4 11 8.4 12C8.4 13 8.75 13.85 9.45 14.55C10.15 15.25 11 15.6 12 15.6Z" fill="white"/>
</svg>
