<svg width="22" height="24" viewBox="0 0 22 24" fill="none" xmlns="http://www.w3.org/2000/svg">
<path d="M16.5498 8.85354C16.7209 8.69667 16.8227 8.47824 16.8328 8.24632C16.8429 8.0144 16.7604 7.78798 16.6035 7.61687C16.4466 7.44577 16.2282 7.34398 15.9963 7.33392C15.7644 7.32385 15.5379 7.40633 15.3668 7.56321L8.98517 13.414L6.66 11.09C6.49413 10.9355 6.27474 10.8513 6.04806 10.8553C5.82137 10.8593 5.60509 10.9512 5.44477 11.1115C5.28446 11.2718 5.19263 11.4881 5.18863 11.7148C5.18463 11.9414 5.26877 12.1608 5.42333 12.3267L8.34 15.2434C8.49936 15.4028 8.71413 15.4947 8.93953 15.4997C9.16493 15.5047 9.38356 15.4225 9.54983 15.2702L16.5498 8.85354ZM20.625 3.83337C17.5182 3.83337 14.4907 2.73321 11.525 0.508374C11.3735 0.39478 11.1893 0.333374 11 0.333374C10.8107 0.333374 10.6265 0.39478 10.475 0.508374C7.50933 2.73321 4.48183 3.83337 1.375 3.83337C1.14294 3.83337 0.920376 3.92556 0.756281 4.08966C0.592187 4.25375 0.5 4.47631 0.5 4.70837V10.8334C0.5 16.6679 3.951 20.9554 10.6792 23.606C10.8853 23.6873 11.1147 23.6873 11.3208 23.606C18.049 20.9554 21.5 16.6667 21.5 10.8334V4.70837C21.5 4.47631 21.4078 4.25375 21.2437 4.08966C21.0796 3.92556 20.8571 3.83337 20.625 3.83337ZM2.25 5.55771C5.2565 5.38037 8.17667 4.28604 11 2.29104C13.8233 4.28604 16.7435 5.38037 19.75 5.55771V10.8334C19.75 15.7987 16.8882 19.4422 11 21.849C5.11183 19.4422 2.25 15.7987 2.25 10.8334V5.55771Z" fill="#1155CC"/>
</svg>
