<svg width="20" height="26" viewBox="0 0 20 26" fill="none" xmlns="http://www.w3.org/2000/svg">
<path d="M3.77747 25.5625H16.2225C18.6485 25.5625 19.8555 24.332 19.8555 21.8945V11.254C19.8555 9.742 19.6915 9.086 18.754 8.125L12.285 1.551C11.395 0.6365 10.668 0.4375 9.34397 0.4375H3.77747C1.36347 0.4375 0.14447 1.6795 0.14447 4.1175V21.8945C0.14447 24.3435 1.36347 25.5625 3.77747 25.5625ZM3.87097 23.676C2.66397 23.676 2.03097 23.031 2.03097 21.8595V4.1525C2.03097 2.9925 2.66397 2.324 3.88297 2.324H9.08597V9.133C9.08597 10.6095 9.83597 11.336 11.289 11.336H17.969V21.8595C17.969 23.031 17.3475 23.676 16.129 23.676H3.87097ZM11.5 9.566C11.043 9.566 10.855 9.379 10.855 8.91V2.6875L17.605 9.5665L11.5 9.566Z" fill="#1155CC"/>
</svg>
