<svg width="20" height="24" viewBox="0 0 20 24" fill="none" xmlns="http://www.w3.org/2000/svg">
<path d="M12.8 5.70005C12.4287 5.70005 12.0726 5.84755 11.8101 6.1101C11.5475 6.37265 11.4 6.72875 11.4 7.10005C11.4 7.47135 11.5475 7.82745 11.8101 8.09C12.0726 8.35255 12.4287 8.50005 12.8 8.50005C13.1713 8.50005 13.5274 8.35255 13.79 8.09C14.0525 7.82745 14.2 7.47135 14.2 7.10005C14.2 6.72875 14.0525 6.37265 13.79 6.1101C13.5274 5.84755 13.1713 5.70005 12.8 5.70005ZM5.80002 7.10005C5.80002 6.72875 5.94752 6.37265 6.21008 6.1101C6.47263 5.84755 6.82872 5.70005 7.20002 5.70005C7.57133 5.70005 7.92742 5.84755 8.18997 6.1101C8.45253 6.37265 8.60003 6.72875 8.60003 7.10005C8.60003 7.47135 8.45253 7.82745 8.18997 8.09C7.92742 8.35255 7.57133 8.50005 7.20002 8.50005C6.82872 8.50005 6.47263 8.35255 6.21008 8.09C5.94752 7.82745 5.80002 7.47135 5.80002 7.10005ZM10.7 1.50005C10.7 1.3144 10.6263 1.13635 10.495 1.00507C10.3637 0.873799 10.1857 0.800049 10 0.800049C9.81437 0.800049 9.63632 0.873799 9.50505 1.00507C9.37377 1.13635 9.30002 1.3144 9.30002 1.50005V2.20005H5.10002C4.54307 2.20005 4.00893 2.4213 3.6151 2.81512C3.22127 3.20895 3.00002 3.74309 3.00002 4.30005V9.90005C3.00002 10.457 3.22127 10.9911 3.6151 11.385C4.00893 11.7788 4.54307 12 5.10002 12H14.9C15.457 12 15.9911 11.7788 16.3849 11.385C16.7788 10.9911 17 10.457 17 9.90005V4.30005C17 3.74309 16.7788 3.20895 16.3849 2.81512C15.9911 2.4213 15.457 2.20005 14.9 2.20005H10.7V1.50005ZM5.10002 3.60005H14.9C15.0857 3.60005 15.2637 3.6738 15.395 3.80507C15.5263 3.93635 15.6 4.1144 15.6 4.30005V9.90005C15.6 10.0857 15.5263 10.2637 15.395 10.395C15.2637 10.5263 15.0857 10.6 14.9 10.6H5.10002C4.91437 10.6 4.73633 10.5263 4.60505 10.395C4.47377 10.2637 4.40002 10.0857 4.40002 9.90005V4.30005C4.40002 4.1144 4.47377 3.93635 4.60505 3.80507C4.73633 3.6738 4.91437 3.60005 5.10002 3.60005ZM10.35 23.1972C14.0124 23.151 16.223 22.3643 17.5208 21.1812C18.7458 20.0612 19.0454 18.6934 19.093 17.6028H19.1V16.6368C19.0997 15.965 18.8325 15.3209 18.3573 14.8459C17.8822 14.371 17.2378 14.1042 16.566 14.1042H12.1V14.1H7.90002V14.1042H3.43402C2.03402 14.1042 0.900024 15.2382 0.900024 16.6382V17.6028H0.907025C0.954625 18.6948 1.25422 20.0626 2.47922 21.1798C3.77702 22.3642 5.98762 23.151 9.65003 23.1972V23.2H10.35V23.1972ZM3.43402 15.5042H16.566C16.8668 15.5042 17.1552 15.6237 17.3679 15.8364C17.5806 16.0491 17.7 16.3375 17.7 16.6382V17.25C17.7 18.216 17.5166 19.2884 16.5772 20.1466C15.614 21.0244 13.724 21.8 10 21.8C6.27602 21.8 4.38602 21.0244 3.42282 20.1466C2.48482 19.2884 2.30002 18.2146 2.30002 17.25V16.6368C2.3004 16.3363 2.42003 16.0483 2.63266 15.8359C2.84529 15.6235 3.13351 15.5042 3.43402 15.5042Z" fill="#1155CC"/>
</svg>
