<svg width="28" height="28" viewBox="0 0 28 28" fill="none" xmlns="http://www.w3.org/2000/svg">
<g clip-path="url(#clip0_229_1390)">
<path d="M16.8 22.5556C16.8 22.3493 16.7181 22.1515 16.5722 22.0056C16.4263 21.8598 16.2285 21.7778 16.0222 21.7778H11.3556C11.1493 21.7778 10.9515 21.8598 10.8056 22.0056C10.6597 22.1515 10.5778 22.3493 10.5778 22.5556C10.5778 22.7619 10.6597 22.9597 10.8056 23.1056C10.9515 23.2514 11.1493 23.3334 11.3556 23.3334H16.0222C16.2285 23.3334 16.4263 23.2514 16.5722 23.1056C16.7181 22.9597 16.8 22.7619 16.8 22.5556Z" fill="#1155CC"/>
<path d="M17.5311 18.6666H12.8644C12.6582 18.6666 12.4603 18.7486 12.3145 18.8944C12.1686 19.0403 12.0867 19.2381 12.0867 19.4444C12.0867 19.6507 12.1686 19.8485 12.3145 19.9944C12.4603 20.1402 12.6582 20.2222 12.8644 20.2222H17.5311C17.7374 20.2222 17.9352 20.1402 18.0811 19.9944C18.2269 19.8485 18.3089 19.6507 18.3089 19.4444C18.3089 19.2381 18.2269 19.0403 18.0811 18.8944C17.9352 18.7486 17.7374 18.6666 17.5311 18.6666Z" fill="#1155CC"/>
<path d="M17.1111 24.8889H12.4444C12.2382 24.8889 12.0403 24.9709 11.8945 25.1167C11.7486 25.2626 11.6667 25.4604 11.6667 25.6667C11.6667 25.873 11.7486 26.0708 11.8945 26.2167C12.0403 26.3625 12.2382 26.4445 12.4444 26.4445H17.1111C17.3174 26.4445 17.5152 26.3625 17.6611 26.2167C17.8069 26.0708 17.8889 25.873 17.8889 25.6667C17.8889 25.4604 17.8069 25.2626 17.6611 25.1167C17.5152 24.9709 17.3174 24.8889 17.1111 24.8889Z" fill="#1155CC"/>
<path d="M25.4333 24.8889H19.9889C19.7826 24.8889 19.5848 24.9709 19.4389 25.1167C19.2931 25.2626 19.2111 25.4604 19.2111 25.6667C19.2111 25.873 19.2931 26.0708 19.4389 26.2167C19.5848 26.3625 19.7826 26.4445 19.9889 26.4445H25.4333C25.6396 26.4445 25.8375 26.3625 25.9833 26.2167C26.1292 26.0708 26.2111 25.873 26.2111 25.6667C26.2111 25.4604 26.1292 25.2626 25.9833 25.1167C25.8375 24.9709 25.6396 24.8889 25.4333 24.8889Z" fill="#1155CC"/>
<path d="M26.2111 21.7778H20.7667C20.5604 21.7778 20.3626 21.8598 20.2167 22.0056C20.0708 22.1515 19.9889 22.3493 19.9889 22.5556C19.9889 22.7619 20.0708 22.9597 20.2167 23.1056C20.3626 23.2514 20.5604 23.3334 20.7667 23.3334H26.2111C26.4174 23.3334 26.6152 23.2514 26.7611 23.1056C26.9069 22.9597 26.9889 22.7619 26.9889 22.5556C26.9889 22.3493 26.9069 22.1515 26.7611 22.0056C26.6152 21.8598 26.4174 21.7778 26.2111 21.7778Z" fill="#1155CC"/>
<path d="M26.2422 20.2222C26.0143 17.4836 25.2701 14.8129 24.0489 12.3511C22.8791 10.1264 21.1935 8.21425 19.1333 6.77443L21 2.65999C21.0602 2.53702 21.0868 2.40035 21.0773 2.26379C21.0677 2.12722 21.0223 1.99559 20.9455 1.88221C20.8748 1.78275 20.7815 1.70135 20.6734 1.6446C20.5653 1.58784 20.4454 1.55734 20.3233 1.55554H7.62222C7.49146 1.55522 7.36274 1.58786 7.24795 1.65046C7.13315 1.71305 7.03599 1.80358 6.96544 1.91366C6.89489 2.02375 6.85324 2.14984 6.84432 2.28029C6.83541 2.41074 6.85952 2.54133 6.91444 2.65999L8.81999 6.78999C6.77421 8.23049 5.10007 10.1366 3.93555 12.3511C2.26333 15.4622 1.74222 19.2655 1.60222 21.9022C1.57929 22.2882 1.63656 22.6748 1.77043 23.0375C1.90429 23.4003 2.11184 23.7314 2.37999 24.01C2.66208 24.2834 2.99584 24.4978 3.36176 24.6407C3.72767 24.7836 4.1184 24.8521 4.5111 24.8422H9.33333V23.3333H4.44888C4.27286 23.3328 4.09876 23.2967 3.93704 23.2272C3.77532 23.1577 3.62931 23.0562 3.50777 22.9289C3.38605 22.8026 3.29205 22.6522 3.23178 22.4875C3.17151 22.3228 3.1463 22.1473 3.15777 21.9722C3.26666 19.9422 3.69444 16.0767 5.30444 13.0667C6.43939 10.91 8.11769 9.08689 10.1733 7.77777H10.9511C10.4243 8.50708 9.93872 9.2653 9.49666 10.0489C9.04735 10.8832 8.66503 11.7518 8.35333 12.6467L9.41888 13.3622C9.73369 12.4335 10.1212 11.5311 10.5778 10.6633C11.1382 9.65413 11.7752 8.68944 12.4833 7.77777H13.2611C13.7825 9.02497 14.1507 10.3308 14.3578 11.6667C14.5269 12.6584 14.6101 13.6628 14.6067 14.6689L15.8355 13.8055C15.8016 13.0233 15.7185 12.244 15.5867 11.4722C15.3771 10.211 15.0436 8.97352 14.5911 7.77777H15.1978L15.9056 6.22221H10.2744L8.83555 3.1111H19.11L17.1655 7.36554C17.4988 7.54424 17.8185 7.747 18.1222 7.97221C20.0285 9.28628 21.5915 11.0387 22.68 13.0822C23.7708 15.3224 24.448 17.7413 24.6789 20.2222H26.2422Z" fill="#1155CC"/>
</g>
<defs>
<clipPath id="clip0_229_1390">
<rect width="28" height="28" fill="white"/>
</clipPath>
</defs>
</svg>
