<svg width="26" height="24" viewBox="0 0 26 24" fill="none" xmlns="http://www.w3.org/2000/svg">
<path d="M4.44456 21.0659L1.98322 23.6299C1.61826 24.0101 1.19648 24.0974 0.717889 23.8917C0.239296 23.6861 0 23.3124 0 22.7707V2.43161C0 1.73844 0.222926 1.16013 0.668778 0.696679C1.11463 0.23323 1.66978 0.00100314 2.33422 0H23.6672C24.3317 0 24.8868 0.232226 25.3327 0.696679C25.7785 1.16113 26.001 1.73944 26 2.43161V18.6358C26 19.3279 25.7776 19.9063 25.3327 20.3707C24.8878 20.8352 24.3326 21.0669 23.6672 21.0659H4.44456ZM3.82778 19.5612H23.6672C23.8887 19.5612 24.0924 19.4649 24.2782 19.2723C24.4641 19.0797 24.5565 18.8675 24.5556 18.6358V2.4301C24.5556 2.19938 24.4631 1.98721 24.2782 1.79361C24.0933 1.6 23.8897 1.5037 23.6672 1.50471H2.33278C2.1113 1.50471 1.90763 1.60101 1.72178 1.79361C1.53593 1.98621 1.44348 2.19837 1.44444 2.4301V22.0364L3.82778 19.5612ZM5.77778 15.7994H14.4444C14.6505 15.7994 14.8224 15.7277 14.9601 15.5842C15.0978 15.4408 15.1667 15.2617 15.1667 15.0471C15.1667 14.8324 15.0978 14.6533 14.9601 14.5099C14.8224 14.3664 14.6505 14.2947 14.4444 14.2947H5.77778C5.57267 14.2947 5.40078 14.3664 5.26211 14.5099C5.12344 14.6533 5.05459 14.8324 5.05555 15.0471C5.05652 15.2617 5.12537 15.4408 5.26211 15.5842C5.39885 15.7277 5.57074 15.7994 5.77778 15.7994ZM5.77778 11.2853H20.2222C20.4283 11.2853 20.6002 11.2136 20.7379 11.0701C20.8756 10.9267 20.9444 10.7476 20.9444 10.5329C20.9444 10.3183 20.8756 10.1392 20.7379 9.99576C20.6002 9.85231 20.4283 9.78059 20.2222 9.78059H5.77778C5.57267 9.78059 5.40078 9.85231 5.26211 9.99576C5.12344 10.1392 5.05459 10.3183 5.05555 10.5329C5.05652 10.7476 5.12537 10.9267 5.26211 11.0701C5.39885 11.2136 5.57074 11.2853 5.77778 11.2853ZM5.77778 6.77118H20.2222C20.4283 6.77118 20.6002 6.69945 20.7379 6.556C20.8756 6.41255 20.9444 6.2335 20.9444 6.01882C20.9444 5.80415 20.8756 5.62509 20.7379 5.48164C20.6002 5.3382 20.4283 5.26647 20.2222 5.26647H5.77778C5.57267 5.26647 5.40078 5.3382 5.26211 5.48164C5.12344 5.62509 5.05459 5.80415 5.05555 6.01882C5.05652 6.2335 5.12537 6.41255 5.26211 6.556C5.39885 6.69945 5.57074 6.77118 5.77778 6.77118Z" fill="#1155CC"/>
</svg>
