<svg width="28" height="28" viewBox="0 0 28 28" fill="none" xmlns="http://www.w3.org/2000/svg">
<path d="M11.375 26.25C8.82229 26.25 6.37414 25.2359 4.5691 23.4309C2.76406 21.6259 1.75 19.1777 1.75 16.625C1.75 14.0723 2.76406 11.6241 4.5691 9.8191C6.37414 8.01406 8.82229 7 11.375 7C11.6071 7 11.8296 7.09219 11.9937 7.25628C12.1578 7.42038 12.25 7.64294 12.25 7.875V15.75H20.125C20.3571 15.75 20.5796 15.8422 20.7437 16.0063C20.9078 16.1704 21 16.3929 21 16.625C21 19.1777 19.9859 21.6259 18.1809 23.4309C16.3759 25.2359 13.9277 26.25 11.375 26.25ZM10.5 8.8025C9.02581 8.96652 7.62791 9.54355 6.46726 10.4671C5.30661 11.3907 4.43041 12.6234 3.93953 14.0231C3.44865 15.4228 3.36307 16.9327 3.69262 18.3789C4.02218 19.8251 4.75348 21.1488 5.80233 22.1977C6.85117 23.2465 8.17491 23.9778 9.62112 24.3074C11.0673 24.6369 12.5772 24.5513 13.9769 24.0605C15.3766 23.5696 16.6093 22.6934 17.5329 21.5327C18.4565 20.3721 19.0335 18.9742 19.1975 17.5H12.25C11.7859 17.5 11.3408 17.3156 11.0126 16.9874C10.6844 16.6592 10.5 16.2141 10.5 15.75V8.8025Z" fill="#1155CC"/>
<path d="M24.5 12.25H16.625C16.1609 12.25 15.7158 12.0656 15.3876 11.7374C15.0594 11.4092 14.875 10.9641 14.875 10.5V2.625C14.875 2.39294 14.9672 2.17038 15.1313 2.00628C15.2954 1.84219 15.5179 1.75 15.75 1.75C18.3027 1.75 20.7509 2.76406 22.5559 4.5691C24.3609 6.37414 25.375 8.82229 25.375 11.375C25.375 11.6071 25.2828 11.8296 25.1187 11.9937C24.9546 12.1578 24.7321 12.25 24.5 12.25ZM16.625 10.5H23.5725C23.3734 8.72596 22.5774 7.07221 21.3151 5.8099C20.0528 4.54758 18.399 3.75162 16.625 3.5525V10.5Z" fill="#1155CC"/>
</svg>
