<svg width="51" height="50" viewBox="0 0 51 50" fill="none" xmlns="http://www.w3.org/2000/svg">
<path d="M12.6668 39.3543L8.97483 43.414C8.42739 44.016 7.79472 44.1542 7.07683 43.8286C6.35894 43.503 6 42.9113 6 42.0536V9.85004C6 8.75253 6.33439 7.83687 7.00317 7.10308C7.67194 6.36928 8.50467 6.00159 9.50133 6H41.5008C42.4975 6 43.3302 6.36769 43.999 7.10308C44.6678 7.83846 45.0014 8.75411 45 9.85004V35.5067C45 36.6026 44.6663 37.5182 43.999 38.2536C43.3317 38.989 42.4989 39.3559 41.5008 39.3543H12.6668ZM11.7417 36.9719H41.5008C41.8331 36.9719 42.1386 36.8194 42.4173 36.5144C42.6961 36.2095 42.8348 35.8736 42.8333 35.5067V9.84766C42.8333 9.48235 42.6947 9.14642 42.4173 8.83988C42.14 8.53334 41.8345 8.38086 41.5008 8.38245H9.49917C9.16694 8.38245 8.86144 8.53493 8.58267 8.83988C8.30389 9.14484 8.16522 9.48076 8.16667 9.84766V40.891L11.7417 36.9719ZM14.6667 31.0157H27.6667C27.9758 31.0157 28.2336 30.9022 28.4402 30.675C28.6467 30.4479 28.75 30.1644 28.75 29.8245C28.75 29.4846 28.6467 29.2011 28.4402 28.974C28.2336 28.7468 27.9758 28.6333 27.6667 28.6333H14.6667C14.359 28.6333 14.1012 28.7468 13.8932 28.974C13.6852 29.2011 13.5819 29.4846 13.5833 29.8245C13.5848 30.1644 13.6881 30.4479 13.8932 30.675C14.0983 30.9022 14.3561 31.0157 14.6667 31.0157ZM14.6667 23.8684H36.3333C36.6424 23.8684 36.9003 23.7548 37.1068 23.5277C37.3134 23.3006 37.4167 23.0171 37.4167 22.6772C37.4167 22.3373 37.3134 22.0537 37.1068 21.8266C36.9003 21.5995 36.6424 21.4859 36.3333 21.4859H14.6667C14.359 21.4859 14.1012 21.5995 13.8932 21.8266C13.6852 22.0537 13.5819 22.3373 13.5833 22.6772C13.5848 23.0171 13.6881 23.3006 13.8932 23.5277C14.0983 23.7548 14.3561 23.8684 14.6667 23.8684ZM14.6667 16.721H36.3333C36.6424 16.721 36.9003 16.6075 37.1068 16.3803C37.3134 16.1532 37.4167 15.8697 37.4167 15.5298C37.4167 15.1899 37.3134 14.9064 37.1068 14.6793C36.9003 14.4521 36.6424 14.3386 36.3333 14.3386H14.6667C14.359 14.3386 14.1012 14.4521 13.8932 14.6793C13.6852 14.9064 13.5819 15.1899 13.5833 15.5298C13.5848 15.8697 13.6881 16.1532 13.8932 16.3803C14.0983 16.6075 14.3561 16.721 14.6667 16.721Z" fill="#1155CC"/>
</svg>
