<svg width="51" height="51" viewBox="0 0 51 51" fill="none" xmlns="http://www.w3.org/2000/svg">
<path d="M32.9614 26.9165C36.38 26.9165 39.1657 23.9625 39.1657 20.3682C39.1657 16.8147 36.3943 14 32.9614 14C29.5571 14 26.7564 16.8563 26.7564 20.3959C26.7707 23.9763 29.5571 26.9165 32.9614 26.9165ZM16.4157 27.2228C19.3743 27.2228 21.8014 24.645 21.8014 21.4824C21.8014 18.3891 19.4029 15.8952 16.4157 15.8952C13.4571 15.8952 11.0157 18.4314 11.03 21.5101C11.0443 24.6596 13.4571 27.2228 16.4157 27.2228ZM32.9614 24.8127C30.8643 24.8127 29.0686 22.8621 29.0686 20.3959C29.0686 17.9706 30.8357 16.1045 32.9614 16.1045C35.1014 16.1045 36.8536 17.9436 36.8536 20.3675C36.8536 22.8344 35.0871 24.8127 32.9614 24.8127ZM16.4157 25.1467C14.6636 25.1467 13.17 23.5169 13.17 21.5101C13.17 19.5456 14.6486 17.9713 16.4157 17.9713C18.225 17.9713 19.6757 19.5179 19.6757 21.4824C19.6757 23.5169 18.1821 25.1467 16.4157 25.1467ZM8.43 40H19.705C19.015 39.6237 18.4836 38.7873 18.5843 37.9378H8.07143C7.78429 37.9378 7.64071 37.8269 7.64071 37.5615C7.64071 34.1065 11.705 30.8739 16.4021 30.8739C18.2114 30.8739 19.8343 31.2918 21.2279 32.0859C21.6901 31.5181 22.2371 31.0204 22.8507 30.6092C20.9979 29.4243 18.7721 28.8117 16.4021 28.8117C10.3836 28.8117 5.5 33.047 5.5 37.687C5.5 39.2336 6.47643 40 8.43 40ZM23.9414 40H41.9814C44.365 40 45.5 39.3036 45.5 37.7708C45.5 34.1204 40.7457 28.8387 32.9614 28.8387C25.1621 28.8387 20.4086 34.1204 20.4086 37.7708C20.4086 39.3036 21.5429 40 23.9414 40ZM23.2521 37.8962C22.8786 37.8962 22.7207 37.7992 22.7207 37.5061C22.7207 35.2208 26.3686 30.9439 32.9614 30.9439C39.54 30.9439 43.1871 35.2208 43.1871 37.5061C43.1871 37.7985 43.0443 37.8962 42.67 37.8962H23.2521Z" fill="#1155CC"/>
</svg>
