<svg width="51" height="50" viewBox="0 0 51 50" fill="none" xmlns="http://www.w3.org/2000/svg">
<path d="M24.555 5.15258C25.1692 4.94914 25.8308 4.94914 26.445 5.15258L40.8825 9.93205C41.4977 10.1358 42.034 10.5332 42.4144 11.0673C42.7948 11.6014 42.9998 12.2448 43 12.9051V21.8816C43 32.9414 36.4025 41.0084 26.5483 44.8052C25.8726 45.0649 25.1274 45.0649 24.4517 44.8052C14.5992 41.0066 8 32.9414 8 21.8816V12.9051C8 11.5472 8.8575 10.3501 10.1175 9.93205L24.555 5.15258ZM25.6348 7.70044C25.5472 7.67149 25.4528 7.67149 25.3652 7.70044L10.9278 12.4835C10.84 12.5125 10.7635 12.569 10.7091 12.6451C10.6548 12.7211 10.6253 12.8128 10.625 12.9069V21.8816C10.625 31.6389 16.365 38.8251 25.3775 42.2967C25.4565 42.3268 25.5435 42.3268 25.6225 42.2967C34.635 38.8251 40.375 31.6389 40.375 21.8816V12.9051C40.3747 12.811 40.3452 12.7194 40.2909 12.6433C40.2365 12.5673 40.16 12.5107 40.0723 12.4817L25.6348 7.70044ZM27.25 24.9762V29.9218C27.25 30.3957 27.0656 30.8502 26.7374 31.1852C26.4092 31.5203 25.9641 31.7086 25.5 31.7086C25.0359 31.7086 24.5908 31.5203 24.2626 31.1852C23.9344 30.8502 23.75 30.3957 23.75 29.9218V24.9762C23.0828 24.5829 22.5613 23.9758 22.2664 23.249C21.9716 22.5223 21.9198 21.7165 22.1193 20.9567C22.3187 20.1968 22.7581 19.5254 23.3693 19.0465C23.9806 18.5677 24.7295 18.3081 25.5 18.3081C26.2705 18.3081 27.0194 18.5677 27.6307 19.0465C28.2419 19.5254 28.6813 20.1968 28.8807 20.9567C29.0802 21.7165 29.0284 22.5223 28.7336 23.249C28.4387 23.9758 27.9172 24.5829 27.25 24.9762Z" fill="#1155CC"/>
</svg>
