<svg width="32" height="28" viewBox="0 0 32 28" fill="none" xmlns="http://www.w3.org/2000/svg">
<path d="M2.90909 14C1.30909 14 0 12.65 0 11V3.5C0 1.85 1.30909 0.5 2.90909 0.5H14.5455C16.1455 0.5 17.4545 1.85 17.4545 3.5V11C17.4545 12.65 16.1455 14 14.5455 14H11.6364V18.5L7.27273 14H2.90909ZM29.0909 23C30.6909 23 32 21.65 32 20V12.5C32 10.85 30.6909 9.5 29.0909 9.5H20.3636V11C20.3636 14.3 17.7455 17 14.5455 17V20C14.5455 21.65 15.8545 23 17.4545 23H20.3636V27.5L24.7273 23H29.0909Z" fill="white"/>
</svg>
