<svg width="29" height="28" viewBox="0 0 29 28" fill="none" xmlns="http://www.w3.org/2000/svg">
<g clip-path="url(#clip0_229_5359)">
<path d="M19.8896 15.4454C22.2826 15.4454 24.2326 13.5139 24.2326 11.1638C24.2326 8.84041 22.2926 7 19.8896 7C17.5066 7 15.5461 8.86759 15.5461 11.1819C15.5561 13.523 17.5066 15.4454 19.8896 15.4454ZM8.30763 15.6457C10.3786 15.6457 12.0776 13.9602 12.0776 11.8924C12.0776 9.86981 10.3986 8.23917 8.30763 8.23917C6.23663 8.23917 4.52763 9.89744 4.53763 11.9105C4.54763 13.9697 6.23663 15.6457 8.30763 15.6457ZM19.8896 14.0699C18.4216 14.0699 17.1646 12.7944 17.1646 11.1819C17.1646 9.59615 18.4016 8.376 19.8896 8.376C21.3876 8.376 22.6141 9.57848 22.6141 11.1633C22.6141 12.7763 21.3776 14.0699 19.8896 14.0699ZM8.30763 14.2882C7.08113 14.2882 6.03563 13.2226 6.03563 11.9105C6.03563 10.626 7.07063 9.5966 8.30763 9.5966C9.57413 9.5966 10.5896 10.6079 10.5896 11.8924C10.5896 13.2226 9.54413 14.2882 8.30763 14.2882ZM2.71763 24H10.6101C10.1271 23.754 9.75513 23.2071 9.82563 22.6516H2.46663C2.26563 22.6516 2.16513 22.5791 2.16513 22.4056C2.16513 20.1466 5.01013 18.0329 8.29813 18.0329C9.56463 18.0329 10.7006 18.3061 11.6761 18.8254C11.9997 18.4542 12.3826 18.1287 12.8121 17.8599C11.5151 17.0851 9.95713 16.6846 8.29813 16.6846C4.08513 16.6846 0.666626 19.4538 0.666626 22.4876C0.666626 23.4989 1.35013 24 2.71763 24ZM13.5756 24H26.2036C27.8721 24 28.6666 23.5447 28.6666 22.5424C28.6666 20.1556 25.3386 16.7022 19.8896 16.7022C14.4301 16.7022 11.1026 20.1556 11.1026 22.5424C11.1026 23.5447 11.8966 24 13.5756 24ZM13.0931 22.6245C12.8316 22.6245 12.7211 22.561 12.7211 22.3694C12.7211 20.8751 15.2746 18.0787 19.8896 18.0787C24.4946 18.0787 27.0476 20.8751 27.0476 22.3694C27.0476 22.5606 26.9476 22.6245 26.6856 22.6245H13.0931Z" fill="#1155CC"/>
</g>
<defs>
<clipPath id="clip0_229_5359">
<rect width="28" height="28" fill="white" transform="translate(0.666626)"/>
</clipPath>
</defs>
</svg>
