<svg width="18" height="18" viewBox="0 0 18 18" fill="none" xmlns="http://www.w3.org/2000/svg">
  <path d="M13.176 6.12C13.041 7.542 12.456 11.0 12.159 12.591C12.033 13.266 11.781 13.491 11.547 13.518C11.025 13.563 10.629 13.176 10.125 12.843C9.333 12.321 8.883 11.997 8.118 11.493C7.227 10.908 7.803 10.584 8.316 10.062C8.451 9.927 10.755 7.83 10.8 7.641C10.8062 7.6124 10.8054 7.5826 10.7976 7.5544C10.7898 7.5262 10.7751 7.5003 10.755 7.479C10.701 7.734 10.629 7.794 10.566 7.803C10.485 7.815 9.225 8.316 6.768 9.972C6.408 10.215 6.084 10.341 5.796 10.332C5.472 10.323 4.86 10.152 4.401 9.999C3.834 9.819 3.393 9.72 3.429 9.405C3.447 9.243 3.672 9.081 4.095 8.91C6.723 7.767 8.469 7.011 9.342 6.651C11.844 5.607 12.357 5.427 12.699 5.427C12.771 5.427 12.942 5.445 13.05 5.535C13.14 5.607 13.167 5.706 13.176 5.778C13.167 5.832 13.185 5.994 13.176 6.12Z" fill="white"/>
</svg>