<svg width="40" height="40" viewBox="0 0 40 40" fill="none" xmlns="http://www.w3.org/2000/svg">
<rect width="40" height="40" rx="20" fill="#1155CC"/>
<path d="M25.1218 28.4999C24.381 28.4999 23.3403 28.2319 21.7819 27.3614C19.8868 26.2989 18.421 25.318 16.5362 23.4385C14.719 21.6227 13.8346 20.4471 12.5969 18.1954C11.1987 15.6529 11.4371 14.3202 11.7035 13.7507C12.0208 13.0699 12.4892 12.6627 13.0945 12.2586C13.4384 12.0333 13.8022 11.8403 14.1815 11.6818C14.2195 11.6655 14.2548 11.6499 14.2863 11.6359C14.4742 11.5513 14.7588 11.4234 15.1194 11.56C15.36 11.6503 15.5748 11.8351 15.9111 12.1671C16.6007 12.8471 17.5431 14.3616 17.8908 15.1054C18.1242 15.6066 18.2787 15.9375 18.2791 16.3087C18.2791 16.7431 18.0605 17.0782 17.7952 17.4399C17.7454 17.5078 17.6961 17.5727 17.6483 17.6357C17.3594 18.0151 17.2961 18.1248 17.3378 18.3206C17.4224 18.7141 18.0536 19.8855 19.0909 20.9203C20.1282 21.9552 21.2661 22.5464 21.6612 22.6306C21.8654 22.6742 21.9773 22.6082 22.369 22.3092C22.4252 22.2663 22.4829 22.2219 22.5432 22.1775C22.9478 21.8766 23.2674 21.6637 23.6917 21.6637H23.694C24.0633 21.6637 24.3794 21.8239 24.9032 22.088C25.5864 22.4325 27.1467 23.3626 27.831 24.0529C28.1639 24.3883 28.3495 24.6023 28.4402 24.8425C28.5768 25.2042 28.4481 25.4876 28.3643 25.6774C28.3502 25.7089 28.3346 25.7434 28.3183 25.7817C28.1586 26.1603 27.9643 26.5233 27.738 26.8662C27.3346 27.4696 26.9258 27.9367 26.2434 28.2543C25.893 28.4201 25.5095 28.504 25.1218 28.4999Z" fill="white"/>
</svg>
