<svg width="28" height="28" viewBox="0 0 28 28" fill="none" xmlns="http://www.w3.org/2000/svg">
<path d="M25.3334 15.3335V19.3335C25.3334 21.0668 21.1547 23.3335 16 23.3335C10.8454 23.3335 6.66669 21.0668 6.66669 19.3335V16.0002" stroke="#1155CC" stroke-width="1.5" stroke-linecap="round" stroke-linejoin="round"/>
<path d="M7.05872 16.3455C8.21205 17.8762 11.7787 19.3122 16 19.3122C21.1547 19.3122 25.3334 17.1709 25.3334 15.3309C25.3334 14.2975 24.0174 13.1655 21.952 12.3708" stroke="#1155CC" stroke-width="1.5" stroke-linecap="round" stroke-linejoin="round"/>
<path d="M21.3334 8.66675V12.6667C21.3334 14.4001 17.1547 16.6667 12 16.6667C6.84535 16.6667 2.66669 14.4001 2.66669 12.6667V8.66675" stroke="#1155CC" stroke-width="1.5" stroke-linecap="round" stroke-linejoin="round"/>
<path fill-rule="evenodd" clip-rule="evenodd" d="M12 12.6454C17.1547 12.6454 21.3334 10.5041 21.3334 8.66408C21.3334 6.82408 17.1547 4.66675 12 4.66675C6.84535 4.66675 2.66669 6.82275 2.66669 8.66408C2.66669 10.5041 6.84535 12.6454 12 12.6454Z" stroke="#1155CC" stroke-width="1.5" stroke-linecap="round" stroke-linejoin="round"/>
</svg>
