<svg width="40" height="40" viewBox="0 0 40 40" fill="none" xmlns="http://www.w3.org/2000/svg">
<rect width="40" height="40" rx="20" fill="#1155CC"/>
<path d="M20 32C18.34 32 16.78 31.6848 15.32 31.0544C13.86 30.424 12.59 29.5692 11.51 28.49C10.43 27.4108 9.5752 26.1408 8.9456 24.68C8.316 23.2192 8.0008 21.6592 8 20C7.9992 18.3408 8.3144 16.7808 8.9456 15.32C9.5768 13.8592 10.4316 12.5892 11.51 11.51C12.5884 10.4308 13.8584 9.576 15.32 8.9456C16.7816 8.3152 18.3416 8 20 8C21.6584 8 23.2184 8.3152 24.68 8.9456C26.1416 9.576 27.4116 10.4308 28.49 11.51C29.5684 12.5892 30.4236 13.8592 31.0556 15.32C31.6876 16.7808 32.0024 18.3408 32 20V21.74C32 22.92 31.5952 23.9252 30.7856 24.7556C29.976 25.586 28.9808 26.0008 27.8 26C27.1 26 26.44 25.85 25.82 25.55C25.2 25.25 24.68 24.82 24.26 24.26C23.68 24.84 23.0248 25.2752 22.2944 25.5656C21.564 25.856 20.7992 26.0008 20 26C18.34 26 16.9252 25.4148 15.7556 24.2444C14.586 23.074 14.0008 21.6592 14 20C13.9992 18.3408 14.5844 16.926 15.7556 15.7556C16.9268 14.5852 18.3416 14 20 14C21.6584 14 23.0736 14.5852 24.2456 15.7556C25.4176 16.926 26.0024 18.3408 26 20V21.74C26 22.26 26.17 22.7 26.51 23.06C26.85 23.42 27.28 23.6 27.8 23.6C28.32 23.6 28.75 23.42 29.09 23.06C29.43 22.7 29.6 22.26 29.6 21.74V20C29.6 17.32 28.67 15.05 26.81 13.19C24.95 11.33 22.68 10.4 20 10.4C17.32 10.4 15.05 11.33 13.19 13.19C11.33 15.05 10.4 17.32 10.4 20C10.4 22.68 11.33 24.95 13.19 26.81C15.05 28.67 17.32 29.6 20 29.6H26V32H20ZM20 23.6C21 23.6 21.85 23.25 22.55 22.55C23.25 21.85 23.6 21 23.6 20C23.6 19 23.25 18.15 22.55 17.45C21.85 16.75 21 16.4 20 16.4C19 16.4 18.15 16.75 17.45 17.45C16.75 18.15 16.4 19 16.4 20C16.4 21 16.75 21.85 17.45 22.55C18.15 23.25 19 23.6 20 23.6Z" fill="white"/>
</svg>
