<svg width="50" height="50" viewBox="0 0 50 50" fill="none" xmlns="http://www.w3.org/2000/svg">
<path d="M24.835 10.4303C24.8375 9.59707 24.6733 8.77172 24.3521 8.00284C24.0309 7.23396 23.5592 6.53706 22.9647 5.95314C22.3703 5.36923 21.6651 4.91008 20.8905 4.6027C20.116 4.29532 19.2879 4.14592 18.4548 4.16328C17.6217 4.18065 16.8005 4.36443 16.0395 4.70381C15.2784 5.0432 14.593 5.53134 14.0234 6.13952C13.4537 6.7477 13.0115 7.46364 12.7226 8.24524C12.4337 9.02684 12.3041 9.85831 12.3413 10.6908C11.1167 11.0056 9.97981 11.595 9.01674 12.4143C8.05368 13.2336 7.28968 14.2613 6.7826 15.4196C6.27553 16.5779 6.03868 17.8364 6.08999 19.0997C6.1413 20.3631 6.47943 21.5982 7.07876 22.7116C6.02497 23.5677 5.19632 24.6683 4.66489 25.9177C4.13346 27.1671 3.91534 28.5274 4.02952 29.8803C4.1437 31.2332 4.58672 32.5377 5.32003 33.6804C6.05334 34.823 7.05473 35.7692 8.2371 36.4366C8.09109 37.5663 8.17822 38.7138 8.49311 39.8085C8.808 40.9032 9.34396 41.9217 10.0679 42.8011C10.7918 43.6805 11.6884 44.4022 12.7021 44.9215C13.7159 45.4409 14.8254 45.7469 15.962 45.8206C17.0987 45.8944 18.2384 45.7343 19.3108 45.3504C20.3832 44.9664 21.3655 44.3666 22.197 43.5882C23.0285 42.8097 23.6916 41.869 24.1454 40.8242C24.5991 39.7794 24.8338 38.6527 24.835 37.5137V10.4303Z" stroke="#1155CC" stroke-width="2.3" stroke-linecap="round" stroke-linejoin="round"/>
<path d="M24.835 10.4303C24.8326 9.59707 24.9968 8.77172 25.3179 8.00284C25.6391 7.23396 26.1108 6.53706 26.7053 5.95314C27.2998 5.36923 28.005 4.91008 28.7795 4.6027C29.554 4.29532 30.3821 4.14592 31.2152 4.16328C32.0483 4.18065 32.8695 4.36443 33.6306 4.70381C34.3916 5.0432 35.0771 5.53134 35.6467 6.13952C36.2163 6.7477 36.6585 7.46364 36.9474 8.24524C37.2363 9.02684 37.3659 9.85831 37.3288 10.6908C38.5533 11.0056 39.6902 11.595 40.6533 12.4143C41.6164 13.2336 42.3804 14.2613 42.8874 15.4196C43.3945 16.5779 43.6314 17.8364 43.58 19.0997C43.5287 20.3631 43.1906 21.5982 42.5913 22.7116C43.6451 23.5677 44.4737 24.6683 45.0051 25.9177C45.5366 27.1671 45.7547 28.5274 45.6405 29.8803C45.5263 31.2332 45.0833 32.5377 44.35 33.6804C43.6167 34.823 42.6153 35.7692 41.4329 36.4366C41.5789 37.5663 41.4918 38.7138 41.1769 39.8085C40.862 40.9032 40.3261 41.9217 39.6021 42.8011C38.8782 43.6805 37.9817 44.4022 36.9679 44.9215C35.9541 45.4409 34.8447 45.7469 33.708 45.8206C32.5713 45.8944 31.4316 45.7343 30.3592 45.3504C29.2868 44.9664 28.3045 44.3666 27.473 43.5882C26.6415 42.8097 25.9784 41.869 25.5247 40.8242C25.071 39.7794 24.8362 38.6527 24.835 37.5137V10.4303Z" stroke="#1155CC" stroke-width="2.3" stroke-linecap="round" stroke-linejoin="round"/>
<path d="M31.085 27.097C29.3359 26.4817 27.8086 25.3616 26.6961 23.8782C25.5836 22.3949 24.936 20.615 24.835 18.7637C24.7341 20.615 24.0864 22.3949 22.9739 23.8782C21.8614 25.3616 20.3341 26.4817 18.585 27.097M36.4996 13.5553C37.0038 12.6815 37.289 11.6987 37.3308 10.6907M12.3413 10.6907C12.3825 11.6985 12.667 12.6814 13.1704 13.5553M7.07877 22.7137C7.45989 22.4032 7.86773 22.1272 8.29752 21.8887M41.3725 21.8887C41.8023 22.1272 42.2101 22.4032 42.5913 22.7137M12.335 37.5137C10.8992 37.5143 9.48766 37.144 8.2371 36.4387M41.4329 36.4387C40.1824 37.144 38.7708 37.5143 37.335 37.5137" stroke="#1155CC" stroke-width="2.3" stroke-linecap="round" stroke-linejoin="round"/>
</svg>
