<svg width="28" height="28" viewBox="0 0 28 28" fill="none" xmlns="http://www.w3.org/2000/svg">
<path d="M13.514 4.57248C13.8299 4.47584 14.1701 4.47584 14.486 4.57248L21.911 6.84272C22.2274 6.93952 22.5032 7.12829 22.6988 7.38198C22.8945 7.63568 22.9999 7.94127 23 8.25495V12.5188C23 17.7722 19.607 21.604 14.5391 23.4075C14.1916 23.5308 13.8084 23.5308 13.4609 23.4075C8.3939 21.6032 5 17.7722 5 12.5188V8.25495C5 7.60994 5.441 7.04132 6.089 6.84272L13.514 4.57248ZM14.0693 5.78271C14.0243 5.76896 13.9757 5.76896 13.9307 5.78271L6.5057 8.05465C6.46058 8.06843 6.42123 8.0953 6.39327 8.13142C6.3653 8.16754 6.35016 8.21107 6.35 8.25579V12.5188C6.35 17.1535 9.302 20.5669 13.937 22.2159C13.9776 22.2302 14.0224 22.2302 14.063 22.2159C18.698 20.5669 21.65 17.1535 21.65 12.5188V8.25495C21.6498 8.21022 21.6347 8.16669 21.6067 8.13057C21.5788 8.09445 21.5394 8.06758 21.4943 8.05381L14.0693 5.78271ZM14.9 13.9887V16.3379C14.9 16.563 14.8052 16.7788 14.6364 16.938C14.4676 17.0972 14.2387 17.1866 14 17.1866C13.7613 17.1866 13.5324 17.0972 13.3636 16.938C13.1948 16.7788 13.1 16.563 13.1 16.3379V13.9887C12.7568 13.8019 12.4887 13.5135 12.337 13.1683C12.1854 12.8231 12.1588 12.4403 12.2613 12.0794C12.3639 11.7185 12.5899 11.3996 12.9042 11.1721C13.2186 10.9446 13.6038 10.8213 14 10.8213C14.3962 10.8213 14.7814 10.9446 15.0958 11.1721C15.4101 11.3996 15.6361 11.7185 15.7387 12.0794C15.8412 12.4403 15.8146 12.8231 15.663 13.1683C15.5113 13.5135 15.2432 13.8019 14.9 13.9887Z" fill="#1155CC" stroke="#1155CC" stroke-width="0.3"/>
</svg>
