<svg width="50" height="50" viewBox="0 0 50 50" fill="none" xmlns="http://www.w3.org/2000/svg">
<g clip-path="url(#clip0_229_1243)">
<path d="M29 37.2222C29 36.9275 28.8829 36.6449 28.6746 36.4365C28.4662 36.2281 28.1836 36.1111 27.8889 36.1111H21.2222C20.9275 36.1111 20.6449 36.2281 20.4366 36.4365C20.2282 36.6449 20.1111 36.9275 20.1111 37.2222C20.1111 37.5169 20.2282 37.7995 20.4366 38.0079C20.6449 38.2162 20.9275 38.3333 21.2222 38.3333H27.8889C28.1836 38.3333 28.4662 38.2162 28.6746 38.0079C28.8829 37.7995 29 37.5169 29 37.2222Z" fill="#1155CC"/>
<path d="M30.0444 31.6667H23.3778C23.0831 31.6667 22.8005 31.7837 22.5921 31.9921C22.3837 32.2005 22.2667 32.4831 22.2667 32.7778C22.2667 33.0725 22.3837 33.3551 22.5921 33.5635C22.8005 33.7718 23.0831 33.8889 23.3778 33.8889H30.0444C30.3391 33.8889 30.6217 33.7718 30.8301 33.5635C31.0385 33.3551 31.1556 33.0725 31.1556 32.7778C31.1556 32.4831 31.0385 32.2005 30.8301 31.9921C30.6217 31.7837 30.3391 31.6667 30.0444 31.6667Z" fill="#1155CC"/>
<path d="M29.4444 40.5555H22.7778C22.4831 40.5555 22.2005 40.6726 21.9921 40.881C21.7837 41.0894 21.6667 41.372 21.6667 41.6667C21.6667 41.9613 21.7837 42.244 21.9921 42.4523C22.2005 42.6607 22.4831 42.7778 22.7778 42.7778H29.4444C29.7391 42.7778 30.0217 42.6607 30.2301 42.4523C30.4385 42.244 30.5555 41.9613 30.5555 41.6667C30.5555 41.372 30.4385 41.0894 30.2301 40.881C30.0217 40.6726 29.7391 40.5555 29.4444 40.5555Z" fill="#1155CC"/>
<path d="M41.3333 40.5555H33.5556C33.2609 40.5555 32.9783 40.6726 32.7699 40.881C32.5615 41.0894 32.4445 41.372 32.4445 41.6667C32.4445 41.9613 32.5615 42.244 32.7699 42.4523C32.9783 42.6607 33.2609 42.7778 33.5556 42.7778H41.3333C41.628 42.7778 41.9106 42.6607 42.119 42.4523C42.3274 42.244 42.4445 41.9613 42.4445 41.6667C42.4445 41.372 42.3274 41.0894 42.119 40.881C41.9106 40.6726 41.628 40.5555 41.3333 40.5555Z" fill="#1155CC"/>
<path d="M42.4444 36.1111H34.6667C34.372 36.1111 34.0894 36.2281 33.881 36.4365C33.6726 36.6449 33.5555 36.9275 33.5555 37.2222C33.5555 37.5169 33.6726 37.7995 33.881 38.0079C34.0894 38.2162 34.372 38.3333 34.6667 38.3333H42.4444C42.7391 38.3333 43.0217 38.2162 43.2301 38.0079C43.4385 37.7995 43.5555 37.5169 43.5555 37.2222C43.5555 36.9275 43.4385 36.6449 43.2301 36.4365C43.0217 36.2281 42.7391 36.1111 42.4444 36.1111Z" fill="#1155CC"/>
<path d="M42.4889 33.8889C42.1633 29.9766 41.1001 26.1613 39.3556 22.6445C37.6844 19.4664 35.2765 16.7347 32.3333 14.6778L35 8.80001C35.086 8.62435 35.1241 8.4291 35.1104 8.234C35.0967 8.03891 35.0318 7.85087 34.9222 7.6889C34.8211 7.54681 34.6879 7.43052 34.5335 7.34945C34.3791 7.26838 34.2077 7.2248 34.0333 7.22223H15.8889C15.7021 7.22177 15.5182 7.2684 15.3542 7.35782C15.1902 7.44724 15.0514 7.57656 14.9506 7.73383C14.8499 7.8911 14.7904 8.07123 14.7776 8.25759C14.7649 8.44394 14.7993 8.6305 14.8778 8.80001L17.6 14.7C14.6775 16.7579 12.2858 19.4808 10.6222 22.6445C8.23334 27.0889 7.4889 32.5222 7.2889 36.2889C7.25615 36.8403 7.33797 37.3925 7.5292 37.9108C7.72043 38.429 8.01693 38.902 8.40001 39.3C8.80299 39.6906 9.27979 39.9968 9.80253 40.201C10.3253 40.4051 10.8834 40.503 11.4445 40.4889H18.3333V38.3333H11.3556C11.1041 38.3326 10.8554 38.281 10.6244 38.1817C10.3933 38.0824 10.1847 37.9375 10.0111 37.7556C9.83724 37.5751 9.70295 37.3604 9.61685 37.125C9.53075 36.8897 9.49474 36.639 9.51112 36.3889C9.66667 33.4889 10.2778 27.9667 12.5778 23.6667C14.1992 20.5857 16.5967 17.9813 19.5333 16.1111H20.6445C19.8919 17.153 19.1982 18.2362 18.5667 19.3556C17.9248 20.5474 17.3786 21.7883 16.9333 23.0667L18.4556 24.0889C18.9053 22.7622 19.4589 21.473 20.1111 20.2333C20.9117 18.7916 21.8218 17.4135 22.8333 16.1111H23.9445C24.6893 17.8928 25.2154 19.7583 25.5111 21.6667C25.7527 23.0834 25.8717 24.5184 25.8667 25.9556L27.6222 24.7222C27.5737 23.6048 27.455 22.4915 27.2667 21.3889C26.9673 19.5872 26.4909 17.8193 25.8445 16.1111H26.7111L27.7222 13.8889H19.6778L17.6222 9.44445H32.3L29.5222 15.5222C29.9982 15.7775 30.455 16.0672 30.8889 16.3889C33.6122 18.2661 35.8451 20.7696 37.4 23.6889C38.9583 26.8892 39.9257 30.3447 40.2556 33.8889H42.4889Z" fill="#1155CC"/>
</g>
<defs>
<clipPath id="clip0_229_1243">
<rect width="40" height="40" fill="white" transform="translate(5 5)"/>
</clipPath>
</defs>
</svg>
