<svg width="51" height="50" viewBox="0 0 51 50" fill="none" xmlns="http://www.w3.org/2000/svg">
<path d="M22.375 42.5C18.7283 42.5 15.2309 41.0513 12.6523 38.4727C10.0737 35.8941 8.625 32.3967 8.625 28.75C8.625 25.1033 10.0737 21.6059 12.6523 19.0273C15.2309 16.4487 18.7283 15 22.375 15C22.7065 15 23.0245 15.1317 23.2589 15.3661C23.4933 15.6005 23.625 15.9185 23.625 16.25V27.5H34.875C35.2065 27.5 35.5245 27.6317 35.7589 27.8661C35.9933 28.1005 36.125 28.4185 36.125 28.75C36.125 32.3967 34.6763 35.8941 32.0977 38.4727C29.5191 41.0513 26.0217 42.5 22.375 42.5ZM21.125 17.575C19.019 17.8093 17.022 18.6336 15.3639 19.9531C13.7059 21.2725 12.4542 23.0334 11.7529 25.033C11.0516 27.0325 10.9294 29.1895 11.4002 31.2555C11.871 33.3216 12.9157 35.2126 14.414 36.711C15.9124 38.2093 17.8034 39.254 19.8695 39.7248C21.9355 40.1956 24.0925 40.0734 26.092 39.3721C28.0916 38.6708 29.8525 37.4191 31.1719 35.7611C32.4914 34.103 33.3157 32.106 33.55 30H23.625C22.962 30 22.3261 29.7366 21.8572 29.2678C21.3884 28.7989 21.125 28.163 21.125 27.5V17.575Z" fill="#1155CC"/>
<path d="M41.125 22.5H29.875C29.212 22.5 28.5761 22.2366 28.1072 21.7678C27.6384 21.2989 27.375 20.663 27.375 20V8.75C27.375 8.41848 27.5067 8.10054 27.7411 7.86612C27.9755 7.6317 28.2935 7.5 28.625 7.5C32.2717 7.5 35.7691 8.94866 38.3477 11.5273C40.9263 14.1059 42.375 17.6033 42.375 21.25C42.375 21.5815 42.2433 21.8995 42.0089 22.1339C41.7745 22.3683 41.4565 22.5 41.125 22.5ZM29.875 20H39.8C39.5156 17.4657 38.3785 15.1032 36.5751 13.2999C34.7718 11.4965 32.4093 10.3595 29.875 10.075V20Z" fill="#1155CC"/>
</svg>
