<svg width="18" height="18" viewBox="0 0 18 18" fill="none" xmlns="http://www.w3.org/2000/svg">
<path d="M14.1218 17.4999C13.381 17.4999 12.3403 17.2319 10.7819 16.3614C8.88681 15.2989 7.42101 14.318 5.53621 12.4385C3.71896 10.6227 2.83463 9.44714 1.59694 7.19538C0.198712 4.65293 0.437064 3.32024 0.703503 2.75066C1.0208 2.06989 1.48915 1.66272 2.09452 1.25859C2.43837 1.03335 2.80224 0.840266 3.18153 0.681793C3.21949 0.665476 3.25478 0.649918 3.28629 0.635877C3.47416 0.551256 3.75882 0.423375 4.11938 0.559983C4.36001 0.650297 4.57483 0.835098 4.9111 1.16713C5.60073 1.84714 6.54313 3.3616 6.89079 4.10536C7.12421 4.60664 7.27869 4.93754 7.27907 5.30866C7.27907 5.74315 7.06045 6.07822 6.79515 6.43985C6.74543 6.50778 6.69609 6.57267 6.64827 6.63566C6.35944 7.01513 6.29605 7.12479 6.3378 7.3206C6.42244 7.71411 7.05362 8.88553 8.09091 9.92034C9.12819 10.9552 10.2661 11.5464 10.6612 11.6306C10.8654 11.6742 10.9773 11.6082 11.369 11.3092C11.4252 11.2663 11.4829 11.2219 11.5432 11.1775C11.9478 10.8766 12.2674 10.6637 12.6917 10.6637H12.694C13.0633 10.6637 13.3794 10.8239 13.9032 11.088C14.5864 11.4325 16.1467 12.3626 16.831 13.0529C17.1639 13.3883 17.3495 13.6023 17.4402 13.8425C17.5768 14.2042 17.4481 14.4876 17.3643 14.6774C17.3502 14.7089 17.3346 14.7434 17.3183 14.7817C17.1586 15.1603 16.9643 15.5233 16.738 15.8662C16.3346 16.4696 15.9258 16.9367 15.2434 17.2543C14.893 17.4201 14.5095 17.504 14.1218 17.4999Z" fill="white"/>
</svg>
