<svg width="40" height="40" viewBox="0 0 40 40" fill="none" xmlns="http://www.w3.org/2000/svg">
<rect width="40" height="40" rx="20" fill="#6E2AC6"/>
<path d="M15.965 13.202C15.7791 13.1748 15.5895 13.2122 15.428 13.308H15.414C15.039 13.528 14.701 13.805 14.413 14.131C14.173 14.408 14.043 14.688 14.009 14.958C13.989 15.118 14.003 15.28 14.05 15.433L14.068 15.443C14.338 16.236 14.69 16.999 15.12 17.717C15.6747 18.7253 16.3569 19.658 17.15 20.492L17.174 20.526L17.212 20.554L17.235 20.581L17.263 20.605C18.0999 21.4003 19.0348 22.0858 20.045 22.645C21.2 23.274 21.901 23.571 22.322 23.695V23.701C22.445 23.739 22.557 23.756 22.67 23.756C23.0287 23.7303 23.3683 23.5844 23.634 23.342C23.959 23.054 24.234 22.715 24.448 22.338V22.331C24.649 21.951 24.581 21.593 24.291 21.35C23.709 20.8404 23.079 20.3883 22.41 20C21.962 19.757 21.507 19.904 21.323 20.15L20.93 20.646C20.728 20.892 20.362 20.858 20.362 20.858L20.352 20.864C17.621 20.167 16.892 17.402 16.892 17.402C16.892 17.402 16.858 17.026 17.111 16.834L17.603 16.438C17.839 16.246 18.003 15.792 17.75 15.344C17.3625 14.6754 16.9115 14.0458 16.403 13.464C16.2917 13.3274 16.136 13.2343 15.963 13.201M20.58 12C20.4474 12 20.3202 12.0527 20.2264 12.1464C20.1326 12.2402 20.08 12.3674 20.08 12.5C20.08 12.6326 20.1326 12.7598 20.2264 12.8536C20.3202 12.9473 20.4474 13 20.58 13C21.844 13 22.894 13.413 23.725 14.205C24.152 14.638 24.485 15.151 24.703 15.713C24.922 16.276 25.022 16.877 24.996 17.479C24.9904 17.6116 25.0377 17.741 25.1276 17.8387C25.2174 17.9364 25.3424 17.9944 25.475 18C25.6076 18.0056 25.737 17.9582 25.8347 17.8684C25.9324 17.7786 25.9904 17.6536 25.996 17.521C26.0258 16.7806 25.9029 16.0419 25.635 15.351C25.3658 14.6566 24.9559 14.0254 24.431 13.497L24.421 13.487C23.39 12.502 22.086 12 20.58 12Z" fill="white"/>
<path d="M20.545 13.644C20.4124 13.644 20.2853 13.6967 20.1915 13.7904C20.0977 13.8842 20.045 14.0114 20.045 14.144C20.045 14.2766 20.0977 14.4038 20.1915 14.4976C20.2853 14.5913 20.4124 14.644 20.545 14.644H20.562C21.474 14.709 22.138 15.013 22.603 15.512C23.08 16.026 23.327 16.665 23.308 17.455C23.305 17.5876 23.3547 17.716 23.4464 17.8119C23.538 17.9078 23.6639 17.9634 23.7965 17.9665C23.9292 17.9695 24.0575 17.9198 24.1535 17.8282C24.2494 17.7366 24.305 17.6106 24.308 17.478C24.332 16.441 23.998 15.546 23.336 14.832V14.83C22.659 14.104 21.73 13.72 20.612 13.645L20.595 13.643L20.545 13.644Z" fill="white"/>
<path d="M20.526 15.319C20.4591 15.3131 20.3917 15.3207 20.3278 15.3415C20.2639 15.3622 20.2048 15.3956 20.1541 15.4396C20.1034 15.4837 20.0621 15.5375 20.0326 15.5979C20.0032 15.6583 19.9862 15.724 19.9827 15.791C19.9792 15.8581 19.9893 15.9252 20.0123 15.9883C20.0353 16.0514 20.0708 16.1093 20.1167 16.1584C20.1625 16.2075 20.2178 16.2468 20.2792 16.2741C20.3406 16.3013 20.4068 16.3159 20.474 16.317C20.892 16.339 21.159 16.465 21.327 16.634C21.496 16.804 21.622 17.077 21.645 17.504C21.6463 17.5711 21.661 17.6373 21.6884 17.6985C21.7157 17.7598 21.7551 17.815 21.8043 17.8607C21.8534 17.9064 21.9112 17.9418 21.9743 17.9647C22.0374 17.9876 22.1044 17.9976 22.1714 17.994C22.2384 17.9904 22.3041 17.9734 22.3644 17.944C22.4247 17.9145 22.4784 17.8732 22.5224 17.8226C22.5664 17.7719 22.5998 17.7129 22.6205 17.649C22.6412 17.5852 22.6489 17.5179 22.643 17.451C22.611 16.851 22.423 16.321 22.038 15.931C21.651 15.541 21.124 15.351 20.526 15.319Z" fill="white"/>
<path fill-rule="evenodd" clip-rule="evenodd" d="M15.067 9.384C18.2491 8.6727 21.5489 8.6727 24.731 9.384L25.07 9.459C25.9999 9.66748 26.854 10.1294 27.5374 10.7936C28.2209 11.4579 28.707 12.2984 28.942 13.222C29.7504 16.4048 29.7504 19.7392 28.942 22.922C28.707 23.8456 28.2209 24.6861 27.5374 25.3504C26.854 26.0146 25.9999 26.4765 25.07 26.685L24.73 26.76C22.7369 27.205 20.692 27.373 18.653 27.259L16 29.633C15.9 29.7225 15.7777 29.7836 15.6461 29.8098C15.5144 29.836 15.3781 29.8264 15.2514 29.7819C15.1247 29.7375 15.0123 29.6599 14.9259 29.5572C14.8394 29.4544 14.7821 29.3304 14.76 29.198L14.321 26.576C13.4794 26.3136 12.7191 25.84 12.1125 25.2004C11.5059 24.5607 11.0733 23.7763 10.856 22.922C10.0475 19.7392 10.0475 16.4048 10.856 13.222C11.0909 12.2984 11.5771 11.4579 12.2605 10.7936C12.944 10.1294 13.798 9.66748 14.728 9.459L15.067 9.384ZM24.404 10.847C21.4373 10.1838 18.3607 10.1838 15.394 10.847L15.054 10.923C14.3949 11.0712 13.7898 11.3989 13.3055 11.8698C12.8212 12.3406 12.4766 12.9364 12.31 13.591C11.563 16.5316 11.563 19.6124 12.31 22.553C12.4767 23.2077 12.8214 23.8036 13.3059 24.2745C13.7904 24.7454 14.3958 25.073 15.055 25.221L15.145 25.241C15.2906 25.2736 15.4232 25.3488 15.5258 25.4571C15.6284 25.5654 15.6963 25.7019 15.721 25.849L16.015 27.607L17.887 25.932C17.9617 25.8649 18.0492 25.8135 18.1442 25.7809C18.2392 25.7482 18.3398 25.735 18.44 25.742C20.439 25.8831 22.448 25.7332 24.404 25.297L24.743 25.221C25.4022 25.073 26.0076 24.7454 26.4921 24.2745C26.9766 23.8036 27.3213 23.2077 27.488 22.553C28.234 19.613 28.234 16.532 27.488 13.591C27.3213 12.9363 26.9766 12.3404 26.4921 11.8695C26.0076 11.3986 25.4022 11.071 24.743 10.923L24.404 10.847Z" fill="white"/>
</svg>
