<svg width="29" height="28" viewBox="0 0 29 28" fill="none" xmlns="http://www.w3.org/2000/svg">
<path d="M8.33337 9.25C7.91916 9.25 7.58337 9.58579 7.58337 10C7.58337 10.4142 7.91916 10.75 8.33337 10.75V9.25ZM12.3334 10.75C12.7476 10.75 13.0834 10.4142 13.0834 10C13.0834 9.58579 12.7476 9.25 12.3334 9.25V10.75ZM23.3264 16.998L23.3692 17.7468L23.3721 17.7466L23.3264 16.998ZM24.3314 16.065L25.0796 16.1173L25.0799 16.1118L24.3314 16.065ZM24.3314 11.935L25.0799 11.8882L25.0794 11.8812L24.3314 11.935ZM23.3264 11.002L23.3721 10.2534L23.3692 10.2532L23.3264 11.002ZM22.1614 7.172L21.6308 7.7021L21.6314 7.70266L22.1614 7.172ZM22.1614 20.828L21.6314 20.2973L21.6308 20.2979L22.1614 20.828ZM20.3244 13.25C19.9102 13.25 19.5744 13.5858 19.5744 14C19.5744 14.4142 19.9102 14.75 20.3244 14.75V13.25ZM20.3344 14.75C20.7486 14.75 21.0844 14.4142 21.0844 14C21.0844 13.5858 20.7486 13.25 20.3344 13.25V14.75ZM8.33337 10V10.75H12.3334V10V9.25H8.33337V10ZM23.1664 11V10.25H20.5644V11V11.75H23.1664V11ZM20.5644 11V10.25C18.4185 10.25 16.5834 11.8774 16.5834 14H17.3334H18.0834C18.0834 12.8086 19.1403 11.75 20.5644 11.75V11ZM17.3334 14H16.5834C16.5834 16.1226 18.4195 17.75 20.5634 17.75V17V16.25C19.1413 16.25 18.0834 15.1914 18.0834 14H17.3334ZM20.5634 17V17.75H23.1664V17V16.25H20.5634V17ZM23.1664 17V17.75C23.24 17.75 23.3074 17.7503 23.3692 17.7468L23.3264 16.998L23.2836 16.2492C23.2754 16.2497 23.2607 16.25 23.1664 16.25V17ZM23.3264 16.998L23.3721 17.7466C24.2434 17.6934 25.0153 17.0365 25.0795 16.1173L24.3314 16.065L23.5832 16.0127C23.5774 16.0955 23.4893 16.2366 23.2806 16.2494L23.3264 16.998ZM24.3314 16.065L25.0799 16.1118C25.0837 16.0505 25.0834 15.9824 25.0834 15.917H24.3334H23.5834C23.5834 15.9571 23.5834 15.9814 23.5832 15.9998C23.583 16.0176 23.5827 16.0208 23.5828 16.0182L24.3314 16.065ZM24.3334 15.917H25.0834V12.083H24.3334H23.5834V15.917H24.3334ZM24.3334 12.083H25.0834C25.0834 12.0176 25.0837 11.9495 25.0799 11.8882L24.3314 11.935L23.5828 11.9818C23.5827 11.9792 23.583 11.9824 23.5832 12.0002C23.5834 12.0186 23.5834 12.0429 23.5834 12.083H24.3334ZM24.3314 11.935L25.0794 11.8812C25.0136 10.9644 24.2447 10.3067 23.3721 10.2534L23.3264 11.002L23.2806 11.7506C23.488 11.7633 23.5772 11.9036 23.5833 11.9888L24.3314 11.935ZM23.3264 11.002L23.3692 10.2532C23.3074 10.2497 23.24 10.25 23.1664 10.25V11V11.75C23.2608 11.75 23.2754 11.7503 23.2836 11.7508L23.3264 11.002ZM23.2984 11L24.0477 10.9688C23.9694 9.0881 23.7215 7.67019 22.6914 6.64134L22.1614 7.172L21.6314 7.70266C22.2193 8.28981 22.4714 9.1679 22.549 11.0312L23.2984 11ZM22.1614 7.172L22.6919 6.6419C21.9438 5.89314 20.9948 5.56088 19.8223 5.40319C18.6715 5.24841 17.1977 5.25 15.3334 5.25V6V6.75C17.2401 6.75 18.5948 6.75159 19.6224 6.88981C20.6285 7.02512 21.2079 7.27886 21.6308 7.7021L22.1614 7.172ZM15.3334 6V5.25H12.3334V6V6.75H15.3334V6ZM12.3334 6V5.25C10.4691 5.25 8.99527 5.24841 7.8444 5.40319C6.67197 5.56088 5.72294 5.89314 4.97482 6.6419L5.50537 7.172L6.03593 7.7021C6.45881 7.27886 7.03827 7.02512 8.04435 6.88981C9.07198 6.75159 10.4267 6.75 12.3334 6.75V6ZM5.50537 7.172L4.97482 6.6419C4.22702 7.39033 3.89478 8.33898 3.73695 9.51131C3.58203 10.6621 3.58337 12.1356 3.58337 14H4.33337H5.08337C5.08337 12.0934 5.08522 10.7389 5.22354 9.71144C5.35897 8.70552 5.61273 8.12567 6.03593 7.7021L5.50537 7.172ZM4.33337 14H3.58337C3.58337 15.8643 3.58178 17.3381 3.73657 18.489C3.89425 19.6614 4.22651 20.6104 4.97527 21.3586L5.50537 20.828L6.03548 20.2974C5.61224 19.8746 5.35849 19.2951 5.22318 18.289C5.08497 17.2614 5.08337 15.9067 5.08337 14H4.33337ZM5.50537 20.828L4.97527 21.3586C5.72371 22.1063 6.67235 22.4386 7.84468 22.5964C8.99545 22.7513 10.469 22.75 12.3334 22.75V22V21.25C10.4268 21.25 9.0723 21.2482 8.04482 21.1098C7.0389 20.9744 6.45904 20.7206 6.03548 20.2974L5.50537 20.828ZM12.3334 22V22.75H15.3334V22V21.25H12.3334V22ZM15.3334 22V22.75C17.1977 22.75 18.6715 22.7516 19.8223 22.5968C20.9948 22.4391 21.9438 22.1069 22.6919 21.3581L22.1614 20.828L21.6308 20.2979C21.2079 20.7211 20.6285 20.9749 19.6224 21.1102C18.5948 21.2484 17.2401 21.25 15.3334 21.25V22ZM22.1614 20.828L22.6914 21.3587C23.7214 20.3299 23.9704 18.9123 24.0477 17.0308L23.2984 17L22.549 16.9692C22.4724 18.8317 22.2193 19.7101 21.6314 20.2973L22.1614 20.828ZM20.3244 14V14.75H20.3344V14V13.25H20.3244V14Z" fill="#1155CC"/>
</svg>
