<svg width="40" height="40" viewBox="0 0 40 40" fill="none" xmlns="http://www.w3.org/2000/svg">
<rect width="40" height="40" rx="20" fill="#3DDB6A"/>
<path d="M27.05 11.91C26.1331 10.9841 25.0411 10.25 23.8376 9.75039C22.634 9.25078 21.3431 8.99571 20.04 9.00002C14.58 9.00002 10.13 13.45 10.13 18.91C10.13 20.66 10.59 22.36 11.45 23.86L10.05 29L15.3 27.62C16.75 28.41 18.38 28.83 20.04 28.83C25.5 28.83 29.9501 24.38 29.9501 18.92C29.9501 16.27 28.92 13.78 27.05 11.91ZM20.04 27.15C18.56 27.15 17.11 26.75 15.84 26L15.54 25.82L12.42 26.64L13.25 23.6L13.05 23.29C12.2276 21.9771 11.791 20.4593 11.79 18.91C11.79 14.37 15.49 10.67 20.03 10.67C22.23 10.67 24.3 11.53 25.85 13.09C26.6177 13.8539 27.226 14.7626 27.6397 15.7634C28.0534 16.7641 28.2642 17.8371 28.26 18.92C28.2801 23.46 24.58 27.15 20.04 27.15ZM24.56 20.99C24.31 20.87 23.09 20.27 22.87 20.18C22.64 20.1 22.48 20.06 22.31 20.3C22.14 20.55 21.67 21.11 21.53 21.27C21.39 21.44 21.24 21.46 20.99 21.33C20.74 21.21 19.94 20.94 19 20.1C18.26 19.44 17.77 18.63 17.62 18.38C17.48 18.13 17.6 18 17.73 17.87C17.84 17.76 17.98 17.58 18.1 17.44C18.22 17.3 18.27 17.19 18.35 17.03C18.43 16.86 18.39 16.72 18.33 16.6C18.27 16.48 17.77 15.26 17.57 14.76C17.37 14.28 17.16 14.34 17.01 14.33H16.53C16.36 14.33 16.1 14.39 15.87 14.64C15.65 14.89 15.01 15.49 15.01 16.71C15.01 17.93 15.9 19.11 16.02 19.27C16.14 19.44 17.77 21.94 20.25 23.01C20.84 23.27 21.3 23.42 21.66 23.53C22.25 23.72 22.79 23.69 23.22 23.63C23.7 23.56 24.69 23.03 24.89 22.45C25.1 21.87 25.1 21.38 25.03 21.27C24.96 21.16 24.81 21.11 24.56 20.99Z" fill="white"/>
</svg>
